<svg width="322" height="50" viewBox="0 0 322 50" fill="none" xmlns="http://www.w3.org/2000/svg">
<path d="M38.5525 0.895996H47.7685L41.0485 48H31.8325L35.9285 19.264L23.8965 48H15.1285L16.4085 19.136L5.7205 48H0.6005L16.8565 4.032C13.5712 5.14133 11.0538 6.93333 9.3045 9.408C7.55517 11.8827 6.6805 14.8907 6.6805 18.432C6.6805 19.2853 6.72317 20.032 6.8085 20.672C6.9365 21.2693 7.1285 21.824 7.3845 22.336C7.46983 22.5067 7.5125 22.6347 7.5125 22.72C7.55517 22.7627 7.5765 22.8053 7.5765 22.848C5.2725 22.848 3.5445 22.3787 2.3925 21.44C1.28317 20.4587 0.7285 18.9867 0.7285 17.024C0.7285 14.976 1.34717 12.9067 2.5845 10.816C3.8645 8.68266 5.61383 6.74133 7.8325 4.992C9.83783 3.41333 11.9925 2.19733 14.2965 1.344C16.6005 0.447997 18.8618 -3.8147e-06 21.0805 -3.8147e-06C21.8912 -3.8147e-06 22.7018 0.0853297 23.5125 0.255997C24.3658 0.383998 25.1765 0.597331 25.9445 0.895996L24.4725 34.624L38.5525 0.895996ZM62.4955 7.488C62.4955 8.896 61.9835 10.0907 60.9595 11.072C59.9782 12.0533 58.7835 12.544 57.3755 12.544C55.9675 12.544 54.7728 12.0533 53.7915 11.072C52.8102 10.0907 52.3195 8.896 52.3195 7.488C52.3195 6.08 52.8102 4.88533 53.7915 3.904C54.7728 2.88 55.9675 2.368 57.3755 2.368C58.7835 2.368 59.9782 2.88 60.9595 3.904C61.9835 4.88533 62.4955 6.08 62.4955 7.488ZM46.1755 40.704C46.1755 40.1493 46.2182 39.5307 46.3035 38.848C46.3888 38.1227 46.5168 37.3547 46.6875 36.544L51.0395 16H60.2555L55.6475 37.76C55.5622 38.144 55.4982 38.5067 55.4555 38.848C55.4128 39.1467 55.3915 39.4667 55.3915 39.808C55.3915 40.6613 55.5835 41.28 55.9675 41.664C56.3942 42.0053 57.0768 42.176 58.0155 42.176C59.2102 42.176 60.3408 41.664 61.4075 40.64C62.4742 39.5733 63.2635 38.208 63.7755 36.544H66.4635C65.0982 40.4267 63.2635 43.3707 60.9595 45.376C58.6555 47.3813 56.0102 48.384 53.0235 48.384C50.8902 48.384 49.2048 47.7227 47.9675 46.4C46.7728 45.0347 46.1755 43.136 46.1755 40.704ZM78.802 41.152C78.802 40.384 78.8873 39.424 79.058 38.272C79.2713 37.12 79.6767 35.2853 80.274 32.768C80.8713 30.336 81.2553 28.5867 81.426 27.52C81.5967 26.4533 81.682 25.5573 81.682 24.832C81.682 23.7653 81.49 22.9547 81.106 22.4C80.722 21.8453 80.146 21.568 79.378 21.568C78.354 21.568 77.394 22.1013 76.498 23.168C75.6447 24.192 74.9407 25.6213 74.386 27.456L70.034 48H60.818L67.602 16H76.818L76.114 19.328C77.1807 18.1333 78.3327 17.2373 79.57 16.64C80.8073 16.0427 82.1513 15.744 83.602 15.744C85.8633 15.744 87.6127 16.3627 88.85 17.6C90.0873 18.8373 90.706 20.6293 90.706 22.976C90.706 23.9573 90.578 25.1307 90.322 26.496C90.1087 27.8187 89.6607 29.8667 88.978 32.64C88.4233 34.816 88.0607 36.352 87.89 37.248C87.7193 38.144 87.634 38.8907 87.634 39.488C87.634 40.384 87.8473 41.0667 88.274 41.536C88.7007 41.9627 89.3407 42.176 90.194 42.176C91.2607 42.176 92.178 41.8133 92.946 41.088C93.714 40.3627 94.5887 38.848 95.57 36.544H98.258C96.8927 40.512 95.2287 43.4773 93.266 45.44C91.346 47.4027 89.042 48.384 86.354 48.384C83.9647 48.384 82.1087 47.744 80.786 46.464C79.4633 45.1413 78.802 43.3707 78.802 41.152ZM104.328 37.184C104.328 38.848 104.562 40.1067 105.032 40.96C105.501 41.7707 106.333 42.176 107.528 42.176C108.594 42.176 109.64 41.6853 110.664 40.704C111.688 39.68 112.392 38.4 112.776 36.864V36.544L115.912 21.888C115.784 21.2053 115.485 20.672 115.016 20.288C114.589 19.8613 114.013 19.648 113.288 19.648C110.941 19.648 108.85 21.6107 107.016 25.536C105.224 29.4613 104.328 33.344 104.328 37.184ZM116.488 18.944V19.2L119.624 4.48L129.096 3.2L121.736 37.76C121.65 38.144 121.586 38.5067 121.544 38.848C121.501 39.1467 121.48 39.4667 121.48 39.808C121.48 40.6613 121.672 41.28 122.056 41.664C122.482 42.0053 123.165 42.176 124.104 42.176C125.213 42.176 126.216 41.6853 127.112 40.704C128.008 39.7227 128.733 38.336 129.288 36.544H131.976C130.653 40.3413 128.925 43.2 126.792 45.12C124.701 47.04 122.141 48 119.112 48C117.362 48 115.933 47.5307 114.824 46.592C113.757 45.6107 113.096 44.2453 112.84 42.496C111.56 44.4587 110.13 45.9307 108.552 46.912C106.973 47.8933 105.245 48.384 103.368 48.384C100.722 48.384 98.6315 47.488 97.0955 45.696C95.6022 43.904 94.8555 41.3653 94.8555 38.08C94.8555 35.6907 95.2182 33.1947 95.9435 30.592C96.6688 27.9893 97.6715 25.6213 98.9515 23.488C100.53 20.9707 102.365 19.0507 104.456 17.728C106.546 16.3627 108.829 15.68 111.304 15.68C112.968 15.68 114.248 15.9787 115.144 16.576C116.04 17.1307 116.488 17.92 116.488 18.944ZM158.42 48H149.204L157.908 7.296L167.38 6.016L164.244 20.8H164.756C167.188 20.8 169.3 19.6267 171.092 17.28C172.926 14.9333 173.844 12.3947 173.844 9.664C173.844 7.57333 173.225 5.93067 171.988 4.736C170.75 3.54133 169.022 2.944 166.804 2.944C161.513 2.944 157.31 4.352 154.196 7.168C151.081 9.94133 149.524 13.7173 149.524 18.496C149.524 19.3067 149.566 20.0107 149.652 20.608C149.78 21.2053 149.972 21.7813 150.228 22.336C150.313 22.5067 150.356 22.6347 150.356 22.72C150.398 22.7627 150.42 22.8053 150.42 22.848C148.03 22.848 146.281 22.3573 145.172 21.376C144.105 20.352 143.572 18.7733 143.572 16.64C143.572 14.5067 144.276 12.3733 145.684 10.24C147.134 8.10666 149.14 6.18666 151.7 4.48C153.876 3.072 156.201 1.984 158.676 1.216C161.193 0.405331 163.646 -3.8147e-06 166.036 -3.8147e-06C170.516 -3.8147e-06 174.057 0.938663 176.66 2.816C179.262 4.69333 180.564 7.168 180.564 10.24C180.564 12.288 179.924 14.3147 178.644 16.32C177.406 18.3253 175.742 19.9467 173.652 21.184C175.145 21.6107 176.254 22.3573 176.979 23.424C177.705 24.448 178.068 25.8347 178.068 27.584C178.068 28.5653 177.961 29.696 177.748 30.976C177.534 32.2133 177.065 34.112 176.34 36.672C175.742 38.848 175.358 40.4053 175.188 41.344C175.017 42.2827 174.932 43.0933 174.932 43.776C174.932 44.7573 175.145 45.632 175.572 46.4C176.041 47.168 176.66 47.7013 177.428 48C176.19 48.3413 175.017 48.5973 173.908 48.768C172.841 48.9813 171.902 49.088 171.092 49.088C169.428 49.088 168.169 48.7253 167.316 48C166.505 47.3173 166.1 46.2507 166.1 44.8C166.1 44.0747 166.206 43.2 166.42 42.176C166.633 41.1093 167.06 39.36 167.7 36.928C168.425 34.2827 168.894 32.3627 169.108 31.168C169.364 29.9307 169.492 28.864 169.492 27.968C169.492 26.5173 169.172 25.4293 168.532 24.704C167.892 23.9787 166.932 23.616 165.652 23.616C165.481 23.616 165.289 23.6373 165.076 23.68C164.905 23.68 164.393 23.744 163.54 23.872L158.42 48ZM205.113 21.568C205.113 25.1093 203.662 28.2027 200.761 30.848C197.86 33.4507 194.404 34.8587 190.393 35.072C190.35 35.7973 190.308 36.352 190.265 36.736C190.265 37.0773 190.265 37.376 190.265 37.632C190.265 39.5947 190.585 40.9813 191.225 41.792C191.908 42.6027 193.124 43.008 194.873 43.008C196.878 43.008 198.713 42.56 200.377 41.664C202.084 40.7253 204.025 39.0187 206.201 36.544H208.377C205.902 40.5547 203.214 43.5413 200.313 45.504C197.412 47.424 194.233 48.384 190.777 48.384C187.492 48.384 184.996 47.5307 183.289 45.824C181.625 44.1173 180.793 41.5787 180.793 38.208C180.793 35.776 181.177 33.1947 181.945 30.464C182.713 27.7333 183.737 25.3013 185.017 23.168C186.596 20.608 188.473 18.688 190.649 17.408C192.868 16.0853 195.342 15.424 198.073 15.424C200.42 15.424 202.169 15.936 203.321 16.96C204.516 17.9413 205.113 19.4773 205.113 21.568ZM198.585 18.816C197.134 18.816 195.662 20.1173 194.169 22.72C192.718 25.28 191.63 28.3733 190.905 32C193.38 31.8293 195.534 30.6987 197.369 28.608C199.246 26.4747 200.185 24.0853 200.185 21.44C200.185 20.544 200.057 19.8827 199.801 19.456C199.545 19.0293 199.14 18.816 198.585 18.816ZM227.613 18.944V19.392L228.317 16H237.533L232.925 37.76C232.839 38.144 232.775 38.5067 232.733 38.848C232.69 39.1467 232.669 39.4667 232.669 39.808C232.669 40.7467 232.882 41.4507 233.309 41.92C233.735 42.3467 234.397 42.56 235.293 42.56C236.402 42.56 237.405 42.048 238.301 41.024C239.197 39.9573 239.922 38.464 240.477 36.544H243.165C241.799 40.4693 240.029 43.4347 237.853 45.44C235.677 47.4027 233.159 48.384 230.301 48.384C228.466 48.384 226.994 47.872 225.885 46.848C224.818 45.824 224.199 44.3733 224.029 42.496C222.706 44.4587 221.234 45.9307 219.613 46.912C218.034 47.8933 216.327 48.384 214.493 48.384C211.847 48.384 209.757 47.488 208.221 45.696C206.727 43.904 205.98 41.3653 205.98 38.08C205.98 35.6907 206.343 33.1947 207.069 30.592C207.794 27.9893 208.797 25.6213 210.077 23.488C211.655 20.9707 213.49 19.0507 215.581 17.728C217.671 16.3627 219.954 15.68 222.429 15.68C224.093 15.68 225.373 15.9787 226.269 16.576C227.165 17.1307 227.613 17.92 227.613 18.944ZM227.037 22.08C227.037 21.44 226.802 20.8853 226.333 20.416C225.863 19.904 225.223 19.648 224.413 19.648C222.066 19.648 219.975 21.6107 218.141 25.536C216.349 29.4613 215.453 33.344 215.453 37.184C215.453 38.848 215.687 40.1067 216.157 40.96C216.626 41.7707 217.458 42.176 218.653 42.176C219.762 42.176 220.829 41.6427 221.853 40.576C222.919 39.5093 223.623 38.1653 223.965 36.544L227.037 22.08ZM248.453 37.184C248.453 38.848 248.687 40.1067 249.157 40.96C249.626 41.7707 250.458 42.176 251.653 42.176C252.719 42.176 253.765 41.6853 254.789 40.704C255.813 39.68 256.517 38.4 256.901 36.864V36.544L260.037 21.888C259.909 21.2053 259.61 20.672 259.141 20.288C258.714 19.8613 258.138 19.648 257.413 19.648C255.066 19.648 252.975 21.6107 251.141 25.536C249.349 29.4613 248.453 33.344 248.453 37.184ZM260.613 18.944V19.2L263.749 4.48L273.221 3.2L265.861 37.76C265.775 38.144 265.711 38.5067 265.669 38.848C265.626 39.1467 265.605 39.4667 265.605 39.808C265.605 40.6613 265.797 41.28 266.181 41.664C266.607 42.0053 267.29 42.176 268.229 42.176C269.338 42.176 270.341 41.6853 271.237 40.704C272.133 39.7227 272.858 38.336 273.413 36.544H276.101C274.778 40.3413 273.05 43.2 270.917 45.12C268.826 47.04 266.266 48 263.237 48C261.487 48 260.058 47.5307 258.949 46.592C257.882 45.6107 257.221 44.2453 256.965 42.496C255.685 44.4587 254.255 45.9307 252.677 46.912C251.098 47.8933 249.37 48.384 247.493 48.384C244.847 48.384 242.757 47.488 241.221 45.696C239.727 43.904 238.98 41.3653 238.98 38.08C238.98 35.6907 239.343 33.1947 240.069 30.592C240.794 27.9893 241.797 25.6213 243.077 23.488C244.655 20.9707 246.49 19.0507 248.581 17.728C250.671 16.3627 252.954 15.68 255.429 15.68C257.093 15.68 258.373 15.9787 259.269 16.576C260.165 17.1307 260.613 17.92 260.613 18.944ZM295.488 21.568C295.488 25.1093 294.037 28.2027 291.136 30.848C288.235 33.4507 284.779 34.8587 280.768 35.072C280.725 35.7973 280.683 36.352 280.64 36.736C280.64 37.0773 280.64 37.376 280.64 37.632C280.64 39.5947 280.96 40.9813 281.6 41.792C282.283 42.6027 283.499 43.008 285.248 43.008C287.253 43.008 289.088 42.56 290.752 41.664C292.459 40.7253 294.4 39.0187 296.576 36.544H298.752C296.277 40.5547 293.589 43.5413 290.688 45.504C287.787 47.424 284.608 48.384 281.152 48.384C277.867 48.384 275.371 47.5307 273.664 45.824C272 44.1173 271.168 41.5787 271.168 38.208C271.168 35.776 271.552 33.1947 272.32 30.464C273.088 27.7333 274.112 25.3013 275.392 23.168C276.971 20.608 278.848 18.688 281.024 17.408C283.243 16.0853 285.717 15.424 288.448 15.424C290.795 15.424 292.544 15.936 293.696 16.96C294.891 17.9413 295.488 19.4773 295.488 21.568ZM288.96 18.816C287.509 18.816 286.037 20.1173 284.544 22.72C283.093 25.28 282.005 28.3733 281.28 32C283.755 31.8293 285.909 30.6987 287.744 28.608C289.621 26.4747 290.56 24.0853 290.56 21.44C290.56 20.544 290.432 19.8827 290.176 19.456C289.92 19.0293 289.515 18.816 288.96 18.816ZM303.409 48H294.193L300.977 16H310.193L309.361 19.968C311.238 18.3893 312.71 17.344 313.777 16.832C314.886 16.2773 315.996 16 317.105 16C318.428 16 319.494 16.4693 320.305 17.408C321.116 18.304 321.521 19.4347 321.521 20.8C321.521 22.1227 321.094 23.232 320.241 24.128C319.388 25.024 318.278 25.472 316.913 25.472C316.188 25.472 315.612 25.3013 315.185 24.96C314.801 24.6187 314.524 23.9147 314.353 22.848C314.225 22.1653 314.076 21.7387 313.905 21.568C313.734 21.3547 313.5 21.248 313.201 21.248C312.476 21.248 311.793 21.3973 311.153 21.696C310.513 21.9947 309.638 22.656 308.529 23.68L303.409 48Z" fill="#8877FF"/>
</svg>
